<svg class="main-svg" xmlns="http://www.w3.org/2000/svg" xmlns:xlink="http://www.w3.org/1999/xlink" width="640" height="300" style="" viewBox="0 0 640 300"><rect x="0" y="0" width="640" height="300" style="fill: rgb(226, 227, 230); fill-opacity: 1;"/><defs id="defs-f614d5"><g class="clips"><clipPath id="clipf614d5xyplot" class="plotclip"><rect width="423" height="160"/></clipPath><clipPath class="axesclip" id="clipf614d5x"><rect x="80" y="0" width="423" height="300"/></clipPath><clipPath class="axesclip" id="clipf614d5y"><rect x="0" y="60" width="640" height="160"/></clipPath><clipPath class="axesclip" id="clipf614d5xy"><rect x="80" y="60" width="423" height="160"/></clipPath></g><g class="gradients"/><g class="patterns"/></defs><g class="bglayer"/><g class="layer-below"><g class="imagelayer"/><g class="shapelayer"/></g><g class="cartesianlayer"><g class="subplot xy"><g class="layer-subplot"><g class="shapelayer"/><g class="imagelayer"/></g><g class="minor-gridlayer"><g class="x"/><g class="y"/></g><g class="gridlayer"><g class="x"><path class="xgrid crisp" transform="translate(181.73000000000002,0)" d="M0,60v160" style="stroke: rgb(211, 211, 211); stroke-opacity: 1; stroke-width: 1px;"/><path class="xgrid crisp" transform="translate(288.82,0)" d="M0,60v160" style="stroke: rgb(211, 211, 211); stroke-opacity: 1; stroke-width: 1px;"/><path class="xgrid crisp" transform="translate(395.91,0)" d="M0,60v160" style="stroke: rgb(211, 211, 211); stroke-opacity: 1; stroke-width: 1px;"/></g><g class="y"><path class="ygrid crisp" transform="translate(0,164.55)" d="M80,0h423" style="stroke: rgb(211, 211, 211); stroke-opacity: 1; stroke-width: 1px;"/><path class="ygrid crisp" transform="translate(0,105.38)" d="M80,0h423" style="stroke: rgb(211, 211, 211); stroke-opacity: 1; stroke-width: 1px;"/></g></g><g class="zerolinelayer"/><g class="layer-between"><g class="shapelayer"/><g class="imagelayer"/></g><path class="xlines-below"/><path class="ylines-below"/><g class="overlines-below"/><g class="xaxislayer-below"/><g class="yaxislayer-below"/><g class="overaxes-below"/><g class="overplot"><g class="xy" transform="translate(80,60)" clip-path="url(#clipf614d5xyplot)"><g class="scatterlayer mlayer"><g class="trace scatter tracedd7331" style="stroke-miterlimit: 2; opacity: 1;"><g class="fills"/><g class="errorbars"/><g class="lines"><path class="js-line" d="M267.72,49.98L283.78,44.92L289.14,42.93L331.97,26.93L337.33,25.24L358.75,19.36L364.1,18.08L390.87,12.7L396.23,11.8L423,8" style="vector-effect: none; fill: none; stroke: rgb(99, 110, 250); stroke-opacity: 1; stroke-width: 2px; opacity: 1;"/></g><g class="points"/><g class="text"/></g><g class="trace scatter tracef1bc80" style="stroke-miterlimit: 2; opacity: 1;"><g class="fills"/><g class="errorbars"/><g class="lines"><path class="js-line" d="M0,52.03L5.35,29.55L10.71,27.63L16.06,23.4L21.42,23.75L26.77,26.98L32.13,28.16L37.48,48.13L42.84,48.22L48.19,35.11L53.54,19.67L58.9,25.38L64.25,55.64L69.61,41.97L74.96,62.33L80.32,70.14L85.67,63.84L91.03,106.08L96.38,119.58L101.73,110.14L107.09,133.27L112.44,126.71L117.8,105.52L123.15,109.84L128.51,123.51L133.86,136.76L139.22,132.15L144.57,125.43L149.92,127.09L155.28,125.14L160.63,133.69L165.99,146.91L171.34,152L176.7,146.56L182.05,123.69L187.41,113.69L192.76,112.83L198.11,117.3L203.47,118.84L214.18,81.03L219.53,94.61L224.89,77.09L230.24,101.56L235.59,89.28L240.95,84.28L246.3,67.45L251.66,71.53L257.01,93.72L262.37,82.74" style="vector-effect: none; fill: none; stroke: rgb(0, 0, 0); stroke-opacity: 1; stroke-width: 2px; opacity: 1;"/></g><g class="points"/><g class="text"/></g><g class="trace scatter traceedf4dd" style="stroke-miterlimit: 2; opacity: 1;"><g class="fills"/><g class="errorbars"/><g class="lines"><path class="js-line" d="M267.72,49.98L283.78,44.92L289.14,42.93L331.97,26.93L337.33,25.24L358.75,19.36L364.1,18.08L390.87,12.7L396.23,11.8L423,8" style="vector-effect: none; fill: none; stroke: rgb(128, 128, 128); stroke-opacity: 1; stroke-width: 2px; opacity: 1;"/></g><g class="points"/><g class="text"/></g></g></g></g><path class="xlines-above crisp" d="M0,0" style="fill: none;"/><path class="ylines-above crisp" d="M0,0" style="fill: none;"/><g class="overlines-above"/><g class="xaxislayer-above"><g class="xtick"><text text-anchor="middle" x="0" y="237" transform="translate(181.73000000000002,0)" style="font-family: Arial; font-size: 16px; fill: rgb(0, 0, 0); fill-opacity: 1; white-space: pre; opacity: 1;">20</text></g><g class="xtick"><text text-anchor="middle" x="0" y="237" style="font-family: Arial; font-size: 16px; fill: rgb(0, 0, 0); fill-opacity: 1; white-space: pre; opacity: 1;" transform="translate(288.82,0)">40</text></g><g class="xtick"><text text-anchor="middle" x="0" y="237" style="font-family: Arial; font-size: 16px; fill: rgb(0, 0, 0); fill-opacity: 1; white-space: pre; opacity: 1;" transform="translate(395.91,0)">60</text></g><g class="xtick"><text text-anchor="middle" x="0" y="237" style="font-family: Arial; font-size: 16px; fill: rgb(0, 0, 0); fill-opacity: 1; white-space: pre; opacity: 1;" transform="translate(503,0)">80</text></g></g><g class="yaxislayer-above"><g class="ytick"><text text-anchor="end" x="79" y="5.6" transform="translate(0,164.55)" style="font-family: Arial; font-size: 16px; fill: rgb(0, 0, 0); fill-opacity: 1; white-space: pre; opacity: 1;">2400</text></g><g class="ytick"><text text-anchor="end" x="79" y="5.6" style="font-family: Arial; font-size: 16px; fill: rgb(0, 0, 0); fill-opacity: 1; white-space: pre; opacity: 1;" transform="translate(0,105.38)">2500</text></g></g><g class="overaxes-above"/></g></g><g class="polarlayer"/><g class="smithlayer"/><g class="ternarylayer"/><g class="geolayer"/><g class="funnelarealayer"/><g class="pielayer"/><g class="iciclelayer"/><g class="treemaplayer"/><g class="sunburstlayer"/><g class="glimages"/><defs id="topdefs-f614d5"><g class="clips"/><clipPath id="legendf614d5"><rect width="117" height="58" x="0" y="0"/></clipPath></defs><g class="layer-above"><g class="imagelayer"/><g class="shapelayer"/></g><g class="infolayer"><g class="legend" pointer-events="all" transform="translate(511.46,60)"><rect class="bg" shape-rendering="crispEdges" style="stroke: rgb(68, 68, 68); stroke-opacity: 1; fill: rgb(226, 227, 230); fill-opacity: 1; stroke-width: 0px;" width="117" height="58" x="0" y="0"/><g class="scrollbox" transform="" clip-path="url(#legendf614d5)"><g class="groups"><g class="traces" transform="translate(0,16.9)" style="opacity: 1;"><text class="legendtext" text-anchor="start" x="40" y="6.24" style="font-family: Arial; font-size: 16px; fill: rgb(0, 0, 0); fill-opacity: 1; white-space: pre;">Actual</text><g class="layers" style="opacity: 1;"><g class="legendfill"/><g class="legendlines"><path class="js-line" d="M5,0h30" style="fill: none; stroke: rgb(0, 0, 0); stroke-opacity: 1; stroke-width: 2px;"/></g><g class="legendsymbols"><g class="legendpoints"/></g></g><rect class="legendtoggle" x="0" y="-11.9" width="111.25" height="23.8" style="fill: rgb(0, 0, 0); fill-opacity: 0;"/></g><g class="traces" transform="translate(0,40.7)" style="opacity: 1;"><text class="legendtext" text-anchor="start" x="40" y="6.24" style="font-family: Arial; font-size: 16px; fill: rgb(0, 0, 0); fill-opacity: 1; white-space: pre;">Prediction</text><g class="layers" style="opacity: 1;"><g class="legendfill"/><g class="legendlines"><path class="js-line" d="M5,0h30" style="fill: none; stroke: rgb(128, 128, 128); stroke-opacity: 1; stroke-width: 2px;"/></g><g class="legendsymbols"><g class="legendpoints"/></g></g><rect class="legendtoggle" x="0" y="-11.9" width="111.25" height="23.8" style="fill: rgb(0, 0, 0); fill-opacity: 0;"/></g></g></g><rect class="scrollbar" rx="20" ry="3" width="0" height="0" style="fill: rgb(128, 139, 164); fill-opacity: 1;" x="0" y="0"/></g><g class="g-gtitle"><text class="gtitle" x="32" y="30" text-anchor="start" dy="0.7em" style="opacity: 1; font-family: Arial; font-size: 22px; fill: rgb(0, 0, 0); fill-opacity: 1; white-space: pre;"><tspan style="font-weight:bold"><tspan style="font-weight:bold">Prediction Graph</tspan></tspan></text></g><g class="g-xtitle"><text class="xtitle" x="291.5" y="267.8" text-anchor="middle" style="opacity: 1; font-family: Arial; font-size: 19px; fill: rgb(0, 0, 0); fill-opacity: 1; white-space: pre;">No. of Days</text></g><g class="g-ytitle"><text class="ytitle" transform="rotate(-90,22.25625,140)" x="22.25625" y="140" text-anchor="middle" style="opacity: 1; font-family: Arial; font-size: 19px; fill: rgb(0, 0, 0); fill-opacity: 1; white-space: pre;">Stock Price</text></g></g></svg>