<svg class="main-svg" xmlns="http://www.w3.org/2000/svg" xmlns:xlink="http://www.w3.org/1999/xlink" width="640" height="300" style="" viewBox="0 0 640 300"><rect x="0" y="0" width="640" height="300" style="fill: rgb(226, 227, 230); fill-opacity: 1;"/><defs id="defs-baca93"><g class="clips"><clipPath id="clipbaca93xyplot" class="plotclip"><rect width="423" height="160"/></clipPath><clipPath class="axesclip" id="clipbaca93x"><rect x="80" y="0" width="423" height="300"/></clipPath><clipPath class="axesclip" id="clipbaca93y"><rect x="0" y="60" width="640" height="160"/></clipPath><clipPath class="axesclip" id="clipbaca93xy"><rect x="80" y="60" width="423" height="160"/></clipPath></g><g class="gradients"/><g class="patterns"/></defs><g class="bglayer"/><g class="layer-below"><g class="imagelayer"/><g class="shapelayer"/></g><g class="cartesianlayer"><g class="subplot xy"><g class="layer-subplot"><g class="shapelayer"/><g class="imagelayer"/></g><g class="minor-gridlayer"><g class="x"/><g class="y"/></g><g class="gridlayer"><g class="x"><path class="xgrid crisp" transform="translate(181.73000000000002,0)" d="M0,60v160" style="stroke: rgb(211, 211, 211); stroke-opacity: 1; stroke-width: 1px;"/><path class="xgrid crisp" transform="translate(288.82,0)" d="M0,60v160" style="stroke: rgb(211, 211, 211); stroke-opacity: 1; stroke-width: 1px;"/><path class="xgrid crisp" transform="translate(395.91,0)" d="M0,60v160" style="stroke: rgb(211, 211, 211); stroke-opacity: 1; stroke-width: 1px;"/></g><g class="y"><path class="ygrid crisp" transform="translate(0,198.85)" d="M80,0h423" style="stroke: rgb(211, 211, 211); stroke-opacity: 1; stroke-width: 1px;"/><path class="ygrid crisp" transform="translate(0,158.61)" d="M80,0h423" style="stroke: rgb(211, 211, 211); stroke-opacity: 1; stroke-width: 1px;"/><path class="ygrid crisp" transform="translate(0,118.36)" d="M80,0h423" style="stroke: rgb(211, 211, 211); stroke-opacity: 1; stroke-width: 1px;"/><path class="ygrid crisp" transform="translate(0,78.11)" d="M80,0h423" style="stroke: rgb(211, 211, 211); stroke-opacity: 1; stroke-width: 1px;"/></g></g><g class="zerolinelayer"/><g class="layer-between"><g class="shapelayer"/><g class="imagelayer"/></g><path class="xlines-below"/><path class="ylines-below"/><g class="overlines-below"/><g class="xaxislayer-below"/><g class="yaxislayer-below"/><g class="overaxes-below"/><g class="overplot"><g class="xy" transform="translate(80,60)" clip-path="url(#clipbaca93xyplot)"><g class="scatterlayer mlayer"><g class="trace scatter trace5de548" style="stroke-miterlimit: 2; opacity: 1;"><g class="fills"/><g class="errorbars"/><g class="lines"><path class="js-line" d="M267.72,102.61L278.43,99.78L283.78,97.79L299.85,90.15L305.2,87.25L331.97,71.54L337.33,68.23L369.46,47.21L374.81,43.51L401.58,24.19L406.94,20.18L423,8" style="vector-effect: none; fill: none; stroke: rgb(99, 110, 250); stroke-opacity: 1; stroke-width: 2px; opacity: 1;"/></g><g class="points"/><g class="text"/></g><g class="trace scatter traceaa2cdc" style="stroke-miterlimit: 2; opacity: 1;"><g class="fills"/><g class="errorbars"/><g class="lines"><path class="js-line" d="M0,104.07L5.35,96.22L10.71,94.66L16.06,94.42L21.42,92.46L26.77,91.88L32.13,87.07L37.48,94.73L42.84,99.66L48.19,94.88L53.54,89.08L58.9,94.45L64.25,105.49L69.61,99.78L74.96,105.68L80.32,121.61L85.67,118.76L91.03,130.61L96.38,138.55L101.73,136.03L107.09,152L112.44,136.21L117.8,129.29L123.15,129.1L128.51,134.24L133.86,135.4L139.22,128.96L144.57,122.27L149.92,118.22L155.28,126.81L160.63,132.26L165.99,141.35L171.34,138.96L176.7,140.32L182.05,144.49L187.41,134.39L192.76,135.39L198.11,130.83L203.47,134.17L208.82,127.19L214.18,116.71L219.53,128.99L224.89,120.76L230.24,131.17L235.59,123.11L240.95,123.97L246.3,116.98L251.66,118.45L257.01,129.39L262.37,121.75" style="vector-effect: none; fill: none; stroke: rgb(0, 0, 0); stroke-opacity: 1; stroke-width: 2px; opacity: 1;"/></g><g class="points"/><g class="text"/></g><g class="trace scatter tracecabbca" style="stroke-miterlimit: 2; opacity: 1;"><g class="fills"/><g class="errorbars"/><g class="lines"><path class="js-line" d="M267.72,102.61L278.43,99.78L283.78,97.79L299.85,90.15L305.2,87.25L331.97,71.54L337.33,68.23L369.46,47.21L374.81,43.51L401.58,24.19L406.94,20.18L423,8" style="vector-effect: none; fill: none; stroke: rgb(128, 128, 128); stroke-opacity: 1; stroke-width: 2px; opacity: 1;"/></g><g class="points"/><g class="text"/></g></g></g></g><path class="xlines-above crisp" d="M0,0" style="fill: none;"/><path class="ylines-above crisp" d="M0,0" style="fill: none;"/><g class="overlines-above"/><g class="xaxislayer-above"><g class="xtick"><text text-anchor="middle" x="0" y="237" transform="translate(181.73000000000002,0)" style="font-family: Arial; font-size: 16px; fill: rgb(0, 0, 0); fill-opacity: 1; white-space: pre; opacity: 1;">20</text></g><g class="xtick"><text text-anchor="middle" x="0" y="237" style="font-family: Arial; font-size: 16px; fill: rgb(0, 0, 0); fill-opacity: 1; white-space: pre; opacity: 1;" transform="translate(288.82,0)">40</text></g><g class="xtick"><text text-anchor="middle" x="0" y="237" style="font-family: Arial; font-size: 16px; fill: rgb(0, 0, 0); fill-opacity: 1; white-space: pre; opacity: 1;" transform="translate(395.91,0)">60</text></g><g class="xtick"><text text-anchor="middle" x="0" y="237" style="font-family: Arial; font-size: 16px; fill: rgb(0, 0, 0); fill-opacity: 1; white-space: pre; opacity: 1;" transform="translate(503,0)">80</text></g></g><g class="yaxislayer-above"><g class="ytick"><text text-anchor="end" x="79" y="5.6" transform="translate(0,198.85)" style="font-family: Arial; font-size: 16px; fill: rgb(0, 0, 0); fill-opacity: 1; white-space: pre; opacity: 1;">11k</text></g><g class="ytick"><text text-anchor="end" x="79" y="5.6" style="font-family: Arial; font-size: 16px; fill: rgb(0, 0, 0); fill-opacity: 1; white-space: pre; opacity: 1;" transform="translate(0,158.61)">11.5k</text></g><g class="ytick"><text text-anchor="end" x="79" y="5.6" style="font-family: Arial; font-size: 16px; fill: rgb(0, 0, 0); fill-opacity: 1; white-space: pre; opacity: 1;" transform="translate(0,118.36)">12k</text></g><g class="ytick"><text text-anchor="end" x="79" y="5.6" style="font-family: Arial; font-size: 16px; fill: rgb(0, 0, 0); fill-opacity: 1; white-space: pre; opacity: 1;" transform="translate(0,78.11)">12.5k</text></g></g><g class="overaxes-above"/></g></g><g class="polarlayer"/><g class="smithlayer"/><g class="ternarylayer"/><g class="geolayer"/><g class="funnelarealayer"/><g class="pielayer"/><g class="iciclelayer"/><g class="treemaplayer"/><g class="sunburstlayer"/><g class="glimages"/><defs id="topdefs-baca93"><g class="clips"/><clipPath id="legendbaca93"><rect width="117" height="58" x="0" y="0"/></clipPath></defs><g class="layer-above"><g class="imagelayer"/><g class="shapelayer"/></g><g class="infolayer"><g class="legend" pointer-events="all" transform="translate(511.46,60)"><rect class="bg" shape-rendering="crispEdges" width="117" height="58" x="0" y="0" style="stroke: rgb(68, 68, 68); stroke-opacity: 1; fill: rgb(226, 227, 230); fill-opacity: 1; stroke-width: 0px;"/><g class="scrollbox" transform="" clip-path="url(#legendbaca93)"><g class="groups"><g class="traces" transform="translate(0,16.9)" style="opacity: 1;"><text class="legendtext" text-anchor="start" x="40" y="6.24" style="font-family: Arial; font-size: 16px; fill: rgb(0, 0, 0); fill-opacity: 1; white-space: pre;">Actual</text><g class="layers" style="opacity: 1;"><g class="legendfill"/><g class="legendlines"><path class="js-line" d="M5,0h30" style="fill: none; stroke: rgb(0, 0, 0); stroke-opacity: 1; stroke-width: 2px;"/></g><g class="legendsymbols"><g class="legendpoints"/></g></g><rect class="legendtoggle" x="0" y="-11.9" width="111.25" height="23.8" style="fill: rgb(0, 0, 0); fill-opacity: 0;"/></g><g class="traces" transform="translate(0,40.7)" style="opacity: 1;"><text class="legendtext" text-anchor="start" x="40" y="6.24" style="font-family: Arial; font-size: 16px; fill: rgb(0, 0, 0); fill-opacity: 1; white-space: pre;">Prediction</text><g class="layers" style="opacity: 1;"><g class="legendfill"/><g class="legendlines"><path class="js-line" d="M5,0h30" style="fill: none; stroke: rgb(128, 128, 128); stroke-opacity: 1; stroke-width: 2px;"/></g><g class="legendsymbols"><g class="legendpoints"/></g></g><rect class="legendtoggle" x="0" y="-11.9" width="111.25" height="23.8" style="fill: rgb(0, 0, 0); fill-opacity: 0;"/></g></g></g><rect class="scrollbar" rx="20" ry="3" width="0" height="0" x="0" y="0" style="fill: rgb(128, 139, 164); fill-opacity: 1;"/></g><g class="g-gtitle"><text class="gtitle" x="32" y="30" text-anchor="start" dy="0.7em" style="opacity: 1; font-family: Arial; font-size: 22px; fill: rgb(0, 0, 0); fill-opacity: 1; white-space: pre;"><tspan style="font-weight:bold"><tspan style="font-weight:bold">Prediction Graph</tspan></tspan></text></g><g class="g-xtitle"><text class="xtitle" x="291.5" y="267.8" text-anchor="middle" style="opacity: 1; font-family: Arial; font-size: 19px; fill: rgb(0, 0, 0); fill-opacity: 1; white-space: pre;">No. of Days</text></g><g class="g-ytitle"><text class="ytitle" transform="rotate(-90,18.709375,140)" x="18.709375" y="140" text-anchor="middle" style="opacity: 1; font-family: Arial; font-size: 19px; fill: rgb(0, 0, 0); fill-opacity: 1; white-space: pre;">Stock Price</text></g></g></svg>