<svg class="main-svg" xmlns="http://www.w3.org/2000/svg" xmlns:xlink="http://www.w3.org/1999/xlink" width="640" height="300" style="" viewBox="0 0 640 300"><rect x="0" y="0" width="640" height="300" style="fill: rgb(226, 227, 230); fill-opacity: 1;"/><defs id="defs-6ecf72"><g class="clips"><clipPath id="clip6ecf72xyplot" class="plotclip"><rect width="423" height="160"/></clipPath><clipPath class="axesclip" id="clip6ecf72x"><rect x="80" y="0" width="423" height="300"/></clipPath><clipPath class="axesclip" id="clip6ecf72y"><rect x="0" y="60" width="640" height="160"/></clipPath><clipPath class="axesclip" id="clip6ecf72xy"><rect x="80" y="60" width="423" height="160"/></clipPath></g><g class="gradients"/><g class="patterns"/></defs><g class="bglayer"/><g class="layer-below"><g class="imagelayer"/><g class="shapelayer"/></g><g class="cartesianlayer"><g class="subplot xy"><g class="layer-subplot"><g class="shapelayer"/><g class="imagelayer"/></g><g class="minor-gridlayer"><g class="x"/><g class="y"/></g><g class="gridlayer"><g class="x"><path class="xgrid crisp" transform="translate(181.73000000000002,0)" d="M0,60v160" style="stroke: rgb(211, 211, 211); stroke-opacity: 1; stroke-width: 1px;"/><path class="xgrid crisp" transform="translate(288.82,0)" d="M0,60v160" style="stroke: rgb(211, 211, 211); stroke-opacity: 1; stroke-width: 1px;"/><path class="xgrid crisp" transform="translate(395.91,0)" d="M0,60v160" style="stroke: rgb(211, 211, 211); stroke-opacity: 1; stroke-width: 1px;"/></g><g class="y"><path class="ygrid crisp" transform="translate(0,162.74)" d="M80,0h423" style="stroke: rgb(211, 211, 211); stroke-opacity: 1; stroke-width: 1px;"/><path class="ygrid crisp" transform="translate(0,105.32)" d="M80,0h423" style="stroke: rgb(211, 211, 211); stroke-opacity: 1; stroke-width: 1px;"/></g></g><g class="zerolinelayer"/><path class="xlines-below"/><path class="ylines-below"/><g class="overlines-below"/><g class="xaxislayer-below"/><g class="yaxislayer-below"/><g class="overaxes-below"/><g class="plot" transform="translate(80,60)" clip-path="url(#clip6ecf72xyplot)"><g class="scatterlayer mlayer"><g class="trace scatter tracea82ad7" style="stroke-miterlimit: 2; opacity: 1;"><g class="fills"/><g class="errorbars"/><g class="lines"><path class="js-line" d="M267.72,23.84L278.43,33.25L283.78,38.36L305.2,59.97L310.56,65.64L337.33,93.36L342.68,98.28L353.39,107.05L358.75,110.84L369.46,117.11L374.81,119.59L385.52,123.29L390.87,124.55L401.58,126.04L406.94,126.33L423,125.84" style="vector-effect: none; fill: none; stroke: rgb(99, 110, 250); stroke-opacity: 1; stroke-width: 2px; opacity: 1;"/></g><g class="points"/><g class="text"/></g><g class="trace scatter traced9034a" style="stroke-miterlimit: 2; opacity: 1;"><g class="fills"/><g class="errorbars"/><g class="lines"><path class="js-line" d="M0,15.12L10.71,16.96L16.06,20.98L21.42,21.67L26.77,26.95L32.13,14.89L37.48,8L42.84,38.55L48.19,51.29L53.54,60.02L58.9,62.09L64.25,85.63L69.61,84.48L74.96,104.69L80.32,116.06L85.67,98.03L91.03,90.56L96.38,92.63L101.73,128.11L107.09,120.77L112.44,152L117.8,135.92L123.15,102.85L128.51,103.31L133.86,102.05L139.22,82.87L144.57,82.07L149.92,88.61L155.28,82.18L160.63,84.71L165.99,85.97L176.7,108.59L182.05,103.89L187.41,112.96L192.76,103.31L203.47,78.39L208.82,57.38L214.18,64.84L219.53,43.14L224.89,43.14L230.24,35.9L235.59,34.18L240.95,26.49L246.3,22.93L251.66,21.67L257.01,30.51L262.37,27.87" style="vector-effect: none; fill: none; stroke: rgb(0, 0, 0); stroke-opacity: 1; stroke-width: 2px; opacity: 1;"/></g><g class="points"/><g class="text"/></g><g class="trace scatter trace67b102" style="stroke-miterlimit: 2; opacity: 1;"><g class="fills"/><g class="errorbars"/><g class="lines"><path class="js-line" d="M267.72,23.84L278.43,33.25L283.78,38.36L305.2,59.97L310.56,65.64L337.33,93.36L342.68,98.28L353.39,107.05L358.75,110.84L369.46,117.11L374.81,119.59L385.52,123.29L390.87,124.55L401.58,126.04L406.94,126.33L423,125.84" style="vector-effect: none; fill: none; stroke: rgb(128, 128, 128); stroke-opacity: 1; stroke-width: 2px; opacity: 1;"/></g><g class="points"/><g class="text"/></g></g></g><g class="overplot"/><path class="xlines-above crisp" d="M0,0" style="fill: none;"/><path class="ylines-above crisp" d="M0,0" style="fill: none;"/><g class="overlines-above"/><g class="xaxislayer-above"><g class="xtick"><text text-anchor="middle" x="0" y="237" transform="translate(181.73000000000002,0)" style="font-family: Arial; font-size: 16px; fill: rgb(0, 0, 0); fill-opacity: 1; white-space: pre; opacity: 1;">20</text></g><g class="xtick"><text text-anchor="middle" x="0" y="237" style="font-family: Arial; font-size: 16px; fill: rgb(0, 0, 0); fill-opacity: 1; white-space: pre; opacity: 1;" transform="translate(288.82,0)">40</text></g><g class="xtick"><text text-anchor="middle" x="0" y="237" style="font-family: Arial; font-size: 16px; fill: rgb(0, 0, 0); fill-opacity: 1; white-space: pre; opacity: 1;" transform="translate(395.91,0)">60</text></g><g class="xtick"><text text-anchor="middle" x="0" y="237" style="font-family: Arial; font-size: 16px; fill: rgb(0, 0, 0); fill-opacity: 1; white-space: pre; opacity: 1;" transform="translate(503,0)">80</text></g></g><g class="yaxislayer-above"><g class="ytick"><text text-anchor="end" x="79" y="5.6" transform="translate(0,162.74)" style="font-family: Arial; font-size: 16px; fill: rgb(0, 0, 0); fill-opacity: 1; white-space: pre; opacity: 1;">110</text></g><g class="ytick"><text text-anchor="end" x="79" y="5.6" style="font-family: Arial; font-size: 16px; fill: rgb(0, 0, 0); fill-opacity: 1; white-space: pre; opacity: 1;" transform="translate(0,105.32)">115</text></g></g><g class="overaxes-above"/></g></g><g class="polarlayer"/><g class="smithlayer"/><g class="ternarylayer"/><g class="geolayer"/><g class="funnelarealayer"/><g class="pielayer"/><g class="iciclelayer"/><g class="treemaplayer"/><g class="sunburstlayer"/><g class="glimages"/><defs id="topdefs-6ecf72"><g class="clips"/><clipPath id="legend6ecf72"><rect width="117" height="58" x="0" y="0"/></clipPath></defs><g class="layer-above"><g class="imagelayer"/><g class="shapelayer"/></g><g class="infolayer"><g class="legend" pointer-events="all" transform="translate(511.46,60)"><rect class="bg" shape-rendering="crispEdges" width="117" height="58" x="0" y="0" style="stroke: rgb(68, 68, 68); stroke-opacity: 1; fill: rgb(226, 227, 230); fill-opacity: 1; stroke-width: 0px;"/><g class="scrollbox" transform="" clip-path="url(#legend6ecf72)"><g class="groups"><g class="traces" transform="translate(0,16.9)" style="opacity: 1;"><text class="legendtext" text-anchor="start" x="40" y="6.24" style="font-family: Arial; font-size: 16px; fill: rgb(0, 0, 0); fill-opacity: 1; white-space: pre;">Actual</text><g class="layers" style="opacity: 1;"><g class="legendfill"/><g class="legendlines"><path class="js-line" d="M5,0h30" style="fill: none; stroke: rgb(0, 0, 0); stroke-opacity: 1; stroke-width: 2px;"/></g><g class="legendsymbols"><g class="legendpoints"/></g></g><rect class="legendtoggle" x="0" y="-11.9" width="111.25" height="23.8" style="fill: rgb(0, 0, 0); fill-opacity: 0;"/></g><g class="traces" transform="translate(0,40.7)" style="opacity: 1;"><text class="legendtext" text-anchor="start" x="40" y="6.24" style="font-family: Arial; font-size: 16px; fill: rgb(0, 0, 0); fill-opacity: 1; white-space: pre;">Prediction</text><g class="layers" style="opacity: 1;"><g class="legendfill"/><g class="legendlines"><path class="js-line" d="M5,0h30" style="fill: none; stroke: rgb(128, 128, 128); stroke-opacity: 1; stroke-width: 2px;"/></g><g class="legendsymbols"><g class="legendpoints"/></g></g><rect class="legendtoggle" x="0" y="-11.9" width="111.25" height="23.8" style="fill: rgb(0, 0, 0); fill-opacity: 0;"/></g></g></g><rect class="scrollbar" rx="20" ry="3" width="0" height="0" x="0" y="0" style="fill: rgb(128, 139, 164); fill-opacity: 1;"/></g><g class="g-gtitle"><text class="gtitle" x="32" y="30" text-anchor="start" dy="0.7em" style="font-family: Arial; font-size: 22px; fill: rgb(0, 0, 0); opacity: 1; font-weight: normal; white-space: pre;"><tspan style="font-weight:bold"><tspan style="font-weight:bold">Prediction Graph</tspan></tspan></text></g><g class="g-xtitle"><text class="xtitle" x="291.5" y="267.8" text-anchor="middle" style="font-family: Arial; font-size: 19px; fill: rgb(0, 0, 0); opacity: 1; font-weight: normal; white-space: pre;">No. of Days</text></g><g class="g-ytitle"><text class="ytitle" transform="rotate(-90,25.684375000000003,140)" x="25.684375000000003" y="140" text-anchor="middle" style="font-family: Arial; font-size: 19px; fill: rgb(0, 0, 0); opacity: 1; font-weight: normal; white-space: pre;">Stock Price</text></g></g></svg>