<svg class="main-svg" xmlns="http://www.w3.org/2000/svg" xmlns:xlink="http://www.w3.org/1999/xlink" width="640" height="300" style="" viewBox="0 0 640 300"><rect x="0" y="0" width="640" height="300" style="fill: rgb(226, 227, 230); fill-opacity: 1;"/><defs id="defs-ec650d"><g class="clips"><clipPath id="clipec650dxyplot" class="plotclip"><rect width="423" height="160"/></clipPath><clipPath class="axesclip" id="clipec650dx"><rect x="80" y="0" width="423" height="300"/></clipPath><clipPath class="axesclip" id="clipec650dy"><rect x="0" y="60" width="640" height="160"/></clipPath><clipPath class="axesclip" id="clipec650dxy"><rect x="80" y="60" width="423" height="160"/></clipPath></g><g class="gradients"/><g class="patterns"/></defs><g class="bglayer"/><g class="layer-below"><g class="imagelayer"/><g class="shapelayer"/></g><g class="cartesianlayer"><g class="subplot xy"><g class="layer-subplot"><g class="shapelayer"/><g class="imagelayer"/></g><g class="minor-gridlayer"><g class="x"/><g class="y"/></g><g class="gridlayer"><g class="x"><path class="xgrid crisp" transform="translate(181.73000000000002,0)" d="M0,60v160" style="stroke: rgb(211, 211, 211); stroke-opacity: 1; stroke-width: 1px;"/><path class="xgrid crisp" transform="translate(288.82,0)" d="M0,60v160" style="stroke: rgb(211, 211, 211); stroke-opacity: 1; stroke-width: 1px;"/><path class="xgrid crisp" transform="translate(395.91,0)" d="M0,60v160" style="stroke: rgb(211, 211, 211); stroke-opacity: 1; stroke-width: 1px;"/></g><g class="y"><path class="ygrid crisp" transform="translate(0,181.70999999999998)" d="M80,0h423" style="stroke: rgb(211, 211, 211); stroke-opacity: 1; stroke-width: 1px;"/><path class="ygrid crisp" transform="translate(0,143.85)" d="M80,0h423" style="stroke: rgb(211, 211, 211); stroke-opacity: 1; stroke-width: 1px;"/><path class="ygrid crisp" transform="translate(0,105.97999999999999)" d="M80,0h423" style="stroke: rgb(211, 211, 211); stroke-opacity: 1; stroke-width: 1px;"/><path class="ygrid crisp" transform="translate(0,68.12)" d="M80,0h423" style="stroke: rgb(211, 211, 211); stroke-opacity: 1; stroke-width: 1px;"/></g></g><g class="zerolinelayer"/><g class="layer-between"><g class="shapelayer"/><g class="imagelayer"/></g><path class="xlines-below"/><path class="ylines-below"/><g class="overlines-below"/><g class="xaxislayer-below"/><g class="yaxislayer-below"/><g class="overaxes-below"/><g class="overplot"><g class="xy" transform="translate(80,60)" clip-path="url(#clipec650dxyplot)"><g class="scatterlayer mlayer"><g class="trace scatter trace3a9ba9" style="stroke-miterlimit: 2; opacity: 1;"><g class="fills"/><g class="errorbars"/><g class="lines"><path class="js-line" d="M267.72,109.76L283.78,105.22L289.14,103.24L305.2,96.24L310.56,93.65L331.97,82.35L337.33,79.29L358.75,65.95L364.1,62.29L380.16,50.31L385.52,45.94L401.58,31.48L406.94,26.12L417.65,14.43L423,8" style="vector-effect: none; fill: none; stroke: rgb(99, 110, 250); stroke-opacity: 1; stroke-width: 2px; opacity: 1;"/></g><g class="points"/><g class="text"/></g><g class="trace scatter trace5fcb3b" style="stroke-miterlimit: 2; opacity: 1;"><g class="fills"/><g class="errorbars"/><g class="lines"><path class="js-line" d="M0,117.19L10.71,107.17L16.06,102.82L21.42,101.96L26.77,103.01L32.13,101.57L37.48,104.65L42.84,108.29L48.19,109.9L53.54,104.48L58.9,107.78L64.25,113.04L69.61,107.21L74.96,108.61L80.32,120.25L85.67,118.83L91.03,121.41L101.73,136.29L107.09,152L112.44,141.47L117.8,139.73L123.15,139.24L128.51,143.99L133.86,139.73L139.22,134.45L144.57,126.29L149.92,129.66L155.28,136.59L160.63,137.71L165.99,141L171.34,142.06L176.7,142.76L182.05,148.9L187.41,141.64L192.76,139.58L198.11,133.26L203.47,130.21L208.82,123.28L214.18,119.02L219.53,128.09L224.89,120.4L230.24,127.86L235.59,121.39L240.95,123.09L246.3,119.91L251.66,119.93L257.01,126.9L262.37,119.67" style="vector-effect: none; fill: none; stroke: rgb(0, 0, 0); stroke-opacity: 1; stroke-width: 2px; opacity: 1;"/></g><g class="points"/><g class="text"/></g><g class="trace scatter tracefc9c69" style="stroke-miterlimit: 2; opacity: 1;"><g class="fills"/><g class="errorbars"/><g class="lines"><path class="js-line" d="M267.72,109.76L283.78,105.22L289.14,103.24L305.2,96.24L310.56,93.65L331.97,82.35L337.33,79.29L358.75,65.95L364.1,62.29L380.16,50.31L385.52,45.94L401.58,31.48L406.94,26.12L417.65,14.43L423,8" style="vector-effect: none; fill: none; stroke: rgb(128, 128, 128); stroke-opacity: 1; stroke-width: 2px; opacity: 1;"/></g><g class="points"/><g class="text"/></g></g></g></g><path class="xlines-above crisp" d="M0,0" style="fill: none;"/><path class="ylines-above crisp" d="M0,0" style="fill: none;"/><g class="overlines-above"/><g class="xaxislayer-above"><g class="xtick"><text text-anchor="middle" x="0" y="237" transform="translate(181.73000000000002,0)" style="font-family: Arial; font-size: 16px; fill: rgb(0, 0, 0); fill-opacity: 1; white-space: pre; opacity: 1;">20</text></g><g class="xtick"><text text-anchor="middle" x="0" y="237" style="font-family: Arial; font-size: 16px; fill: rgb(0, 0, 0); fill-opacity: 1; white-space: pre; opacity: 1;" transform="translate(288.82,0)">40</text></g><g class="xtick"><text text-anchor="middle" x="0" y="237" style="font-family: Arial; font-size: 16px; fill: rgb(0, 0, 0); fill-opacity: 1; white-space: pre; opacity: 1;" transform="translate(395.91,0)">60</text></g><g class="xtick"><text text-anchor="middle" x="0" y="237" style="font-family: Arial; font-size: 16px; fill: rgb(0, 0, 0); fill-opacity: 1; white-space: pre; opacity: 1;" transform="translate(503,0)">80</text></g></g><g class="yaxislayer-above"><g class="ytick"><text text-anchor="end" x="79" y="5.6" transform="translate(0,219.57)" style="font-family: Arial; font-size: 16px; fill: rgb(0, 0, 0); fill-opacity: 1; white-space: pre; opacity: 1;">1000</text></g><g class="ytick"><text text-anchor="end" x="79" y="5.6" style="font-family: Arial; font-size: 16px; fill: rgb(0, 0, 0); fill-opacity: 1; white-space: pre; opacity: 1;" transform="translate(0,181.70999999999998)">1100</text></g><g class="ytick"><text text-anchor="end" x="79" y="5.6" style="font-family: Arial; font-size: 16px; fill: rgb(0, 0, 0); fill-opacity: 1; white-space: pre; opacity: 1;" transform="translate(0,143.85)">1200</text></g><g class="ytick"><text text-anchor="end" x="79" y="5.6" style="font-family: Arial; font-size: 16px; fill: rgb(0, 0, 0); fill-opacity: 1; white-space: pre; opacity: 1;" transform="translate(0,105.97999999999999)">1300</text></g><g class="ytick"><text text-anchor="end" x="79" y="5.6" style="font-family: Arial; font-size: 16px; fill: rgb(0, 0, 0); fill-opacity: 1; white-space: pre; opacity: 1;" transform="translate(0,68.12)">1400</text></g></g><g class="overaxes-above"/></g></g><g class="polarlayer"/><g class="smithlayer"/><g class="ternarylayer"/><g class="geolayer"/><g class="funnelarealayer"/><g class="pielayer"/><g class="iciclelayer"/><g class="treemaplayer"/><g class="sunburstlayer"/><g class="glimages"/><defs id="topdefs-ec650d"><g class="clips"/><clipPath id="legendec650d"><rect width="117" height="58" x="0" y="0"/></clipPath></defs><g class="layer-above"><g class="imagelayer"/><g class="shapelayer"/></g><g class="infolayer"><g class="legend" pointer-events="all" transform="translate(511.46,60)"><rect class="bg" shape-rendering="crispEdges" width="117" height="58" x="0" y="0" style="stroke: rgb(68, 68, 68); stroke-opacity: 1; fill: rgb(226, 227, 230); fill-opacity: 1; stroke-width: 0px;"/><g class="scrollbox" transform="" clip-path="url(#legendec650d)"><g class="groups"><g class="traces" transform="translate(0,16.9)" style="opacity: 1;"><text class="legendtext" text-anchor="start" x="40" y="6.24" style="font-family: Arial; font-size: 16px; fill: rgb(0, 0, 0); fill-opacity: 1; white-space: pre;">Actual</text><g class="layers" style="opacity: 1;"><g class="legendfill"/><g class="legendlines"><path class="js-line" d="M5,0h30" style="fill: none; stroke: rgb(0, 0, 0); stroke-opacity: 1; stroke-width: 2px;"/></g><g class="legendsymbols"><g class="legendpoints"/></g></g><rect class="legendtoggle" x="0" y="-11.9" width="111.25" height="23.8" style="fill: rgb(0, 0, 0); fill-opacity: 0;"/></g><g class="traces" transform="translate(0,40.7)" style="opacity: 1;"><text class="legendtext" text-anchor="start" x="40" y="6.24" style="font-family: Arial; font-size: 16px; fill: rgb(0, 0, 0); fill-opacity: 1; white-space: pre;">Prediction</text><g class="layers" style="opacity: 1;"><g class="legendfill"/><g class="legendlines"><path class="js-line" d="M5,0h30" style="fill: none; stroke: rgb(128, 128, 128); stroke-opacity: 1; stroke-width: 2px;"/></g><g class="legendsymbols"><g class="legendpoints"/></g></g><rect class="legendtoggle" x="0" y="-11.9" width="111.25" height="23.8" style="fill: rgb(0, 0, 0); fill-opacity: 0;"/></g></g></g><rect class="scrollbar" rx="20" ry="3" width="0" height="0" x="0" y="0" style="fill: rgb(128, 139, 164); fill-opacity: 1;"/></g><g class="g-gtitle"><text class="gtitle" x="32" y="30" text-anchor="start" dy="0.7em" style="opacity: 1; font-family: Arial; font-size: 22px; fill: rgb(0, 0, 0); fill-opacity: 1; white-space: pre;"><tspan style="font-weight:bold"><tspan style="font-weight:bold">Prediction Graph</tspan></tspan></text></g><g class="g-xtitle"><text class="xtitle" x="291.5" y="267.8" text-anchor="middle" style="opacity: 1; font-family: Arial; font-size: 19px; fill: rgb(0, 0, 0); fill-opacity: 1; white-space: pre;">No. of Days</text></g><g class="g-ytitle"><text class="ytitle" transform="rotate(-90,22.25625,140)" x="22.25625" y="140" text-anchor="middle" style="opacity: 1; font-family: Arial; font-size: 19px; fill: rgb(0, 0, 0); fill-opacity: 1; white-space: pre;">Stock Price</text></g></g></svg>